<svg id="iconfinder_Instagram_glyph_svg_5335781" xmlns="http://www.w3.org/2000/svg" width="16.53" height="16.53" viewBox="0 0 16.53 16.53">
  <path id="Path_186" data-name="Path 186" d="M8.265.162c-2.245,0-2.526.01-3.408.05A6.067,6.067,0,0,0,2.851.6a4.051,4.051,0,0,0-1.464.953A4.051,4.051,0,0,0,.434,3.013,6.066,6.066,0,0,0,.05,5.019C.009,5.9,0,6.182,0,8.426s.009,2.526.05,3.408A6.066,6.066,0,0,0,.434,13.84,4.052,4.052,0,0,0,1.387,15.3a4.051,4.051,0,0,0,1.464.953,6.067,6.067,0,0,0,2.006.384c.882.04,1.163.05,3.408.05s2.526-.01,3.408-.05a6.066,6.066,0,0,0,2.006-.384A4.226,4.226,0,0,0,16.1,13.84a6.066,6.066,0,0,0,.384-2.006c.04-.882.05-1.163.05-3.408s-.01-2.526-.05-3.408A6.066,6.066,0,0,0,16.1,3.013a4.051,4.051,0,0,0-.953-1.464A4.052,4.052,0,0,0,13.679.6,6.066,6.066,0,0,0,11.672.211C10.791.171,10.509.162,8.265.162Zm0,1.489c2.207,0,2.468.008,3.34.048a4.574,4.574,0,0,1,1.535.285,2.561,2.561,0,0,1,.95.618,2.561,2.561,0,0,1,.618.95,4.573,4.573,0,0,1,.285,1.535c.04.872.048,1.133.048,3.34s-.008,2.468-.048,3.34a4.573,4.573,0,0,1-.285,1.535,2.737,2.737,0,0,1-1.569,1.569,4.572,4.572,0,0,1-1.535.285c-.871.04-1.133.048-3.34.048s-2.468-.008-3.34-.048a4.572,4.572,0,0,1-1.535-.285,2.561,2.561,0,0,1-.95-.618,2.56,2.56,0,0,1-.618-.95,4.573,4.573,0,0,1-.285-1.535c-.04-.872-.048-1.133-.048-3.34s.008-2.468.048-3.34a4.573,4.573,0,0,1,.285-1.535A2.561,2.561,0,0,1,2.44,2.6a2.561,2.561,0,0,1,.95-.618A4.574,4.574,0,0,1,4.925,1.7C5.8,1.659,6.058,1.651,8.265,1.651Z" transform="translate(0 -0.162)" fill="#fff"/>
  <path id="Path_187" data-name="Path 187" d="M128.784,131.7a2.755,2.755,0,1,1,2.755-2.755A2.755,2.755,0,0,1,128.784,131.7Zm0-7a4.244,4.244,0,1,0,4.244,4.244A4.244,4.244,0,0,0,128.784,124.7Z" transform="translate(-120.519 -120.681)" fill="#fff"/>
  <path id="Path_188" data-name="Path 188" d="M363.916,89.78a.992.992,0,1,1-.992-.992A.992.992,0,0,1,363.916,89.78Z" transform="translate(-350.247 -85.927)" fill="#fff"/>
</svg>
